<svg width="240" height="240" viewBox="0 0 240 240" fill="none" xmlns="http://www.w3.org/2000/svg">
<path fill-rule="evenodd" clip-rule="evenodd" d="M47.3589 53.4762C53.0354 43.0975 64.0549 36.0587 76.7184 36.0587C89.3819 36.0587 100.401 43.0975 106.078 53.4762L119.984 78.8643L134.071 53.1119C139.748 42.7333 150.617 36.0587 163.281 36.0587C175.944 36.0587 186.964 43.0975 192.64 53.4762L234.104 128.894C238.098 136.181 239.999 143.88 239.999 152.776C239.999 176.492 223.857 196.438 201.96 202.227C197.777 203.332 193.384 203.921 188.854 203.921C169.508 203.921 152.853 193.454 144.163 177.611L120.008 133.514L105.039 160.86L96.0187 177.337C87.3282 193.181 70.4912 203.921 51.1456 203.921C22.8987 203.921 0 181.023 0 152.776C0 143.88 2.22329 135.555 6.21703 128.268L47.3589 53.4762ZM51.1456 177.693C37.3843 177.693 26.2285 166.537 26.2285 152.776C26.2285 148.485 27.0992 144.824 29.0093 141.299L70.3823 66.0507C71.6056 63.8085 73.9844 62.2873 76.7185 62.2873C79.4526 62.2873 81.8313 63.8085 83.0546 66.0507L120.008 133.514L105.039 160.86L90.0892 133.514L73.0045 164.746C68.77 172.462 60.5687 177.693 51.1456 177.693ZM188.854 177.693C202.615 177.693 213.771 166.537 213.771 152.776C213.771 148.485 213.167 145.302 211.257 141.777L169.617 66.0507C168.394 63.8085 166.015 62.2873 163.281 62.2873C160.547 62.2873 158.308 63.5412 157.085 65.7834L134.958 106.203L167.113 164.906C171.347 172.623 179.431 177.693 188.854 177.693Z" fill="#FD7415"/>
<path d="M230.812 182.031C223.979 191.813 213.812 199.094 201.96 202.227C197.777 203.332 193.384 203.921 188.854 203.921C181.349 203.921 174.25 202.346 167.863 199.493V166.182C172.261 173.176 179.96 177.693 188.854 177.693C202.615 177.693 213.771 166.537 213.771 152.776C213.771 148.485 213.167 145.302 211.257 141.777L209.918 139.341H230.812V182.031Z" fill="#82027D"/>
<path d="M134.073 53.1119L119.985 78.8643L134.96 106.203L157.086 65.7834C158.309 63.5412 160.548 62.2873 163.282 62.2873C166.016 62.2873 168.395 63.8085 169.618 66.0507L183.601 91.4804V42.9375C177.969 38.6227 170.925 36.0587 163.282 36.0587C150.619 36.0587 139.749 42.7333 134.073 53.1119Z" fill="#62C0AC"/>
<path d="M47.3606 53.4762C53.0371 43.0975 64.0566 36.0587 76.7201 36.0587C89.3836 36.0587 100.403 43.0975 106.08 53.4762L119.985 78.8643L134.96 106.203L167.114 164.906C188.855 202.227 201.96 202.227 201.96 202.227C197.777 203.332 193.385 203.921 188.855 203.921C169.51 203.921 152.855 193.454 144.164 177.611L83.0563 66.0507C81.8331 63.8085 79.4543 62.2873 76.7202 62.2873C73.9861 62.2873 71.6073 63.8085 70.384 66.0507L47.3606 53.4762Z" fill="#F4146B"/>
<path d="M47.3589 53.4762C53.0354 43.0975 64.0549 36.0587 76.7184 36.0587C83.9072 36.0587 90.5662 38.327 96.0187 42.1869C96.0187 42.1869 87.21 37.7376 70.3823 66.0507C51.8014 99.663 45.1665 111.913 29.0093 141.299C10.1513 174.616 15.0814 189.042 15.0814 189.042C5.76642 179.779 0 166.951 0 152.776C0 143.88 2.22329 135.555 6.21703 128.268L47.3589 53.4762Z" fill="#FE0100"/>
<path d="M192.632 53.4175C186.956 43.0388 175.936 36 163.273 36C156.084 36 149.425 38.2683 143.973 42.1282C143.973 42.1282 152.781 37.6788 169.609 65.992C188.19 99.6043 194.825 111.854 210.982 141.24C229.84 174.558 224.91 188.983 224.91 188.983C234.225 179.72 239.991 166.892 239.991 152.717C239.991 143.822 237.768 135.496 233.774 128.21L192.632 53.4175Z" fill="#46B1CC"/>
<path d="M96.0187 177.337C87.3282 193.181 70.4912 203.921 51.1456 203.921C46.8484 203.921 42.6742 203.391 38.6864 202.393C38.6864 202.393 51.1456 202.61 73.0045 164.746L90.0892 133.514L105.039 160.86L96.0187 177.337Z" fill="#FFC40F"/>
</svg>
